<?xml version="1.0" encoding="utf-8"?>
<!-- Generator: Adobe Illustrator 26.1.0, SVG Export Plug-In . SVG Version: 6.00 Build 0)  -->
<svg version="1.1" id="Слой_1" xmlns="http://www.w3.org/2000/svg" xmlns:xlink="http://www.w3.org/1999/xlink" x="0px" y="0px"
	 viewBox="0 0 56.69 56.69" style="enable-background:new 0 0 56.69 56.69;" xml:space="preserve">
<style type="text/css">
	.st0{fill:#6796CC;}
	.st1{clip-path:url(#SVGID_00000181765940440603131260000007382494308601092257_);}
	.st2{fill-rule:evenodd;clip-rule:evenodd;fill:#39478E;}
	.st3{fill:#39478E;}
</style>
<g>
	<circle class="st0" cx="28.35" cy="28.35" r="28.35"/>
	<g>
		<defs>
			<rect id="SVGID_1_" x="16.01" y="9.78" width="24.68" height="37.13"/>
		</defs>
		<clipPath id="SVGID_00000172398399991526433120000003890034765003374224_">
			<use xlink:href="#SVGID_1_"  style="overflow:visible;"/>
		</clipPath>
		<g style="clip-path:url(#SVGID_00000172398399991526433120000003890034765003374224_);">
			<path class="st2" d="M27.13,9.99c0.93-0.28,1.93-0.28,2.92,0l9.27,2.91l-2.78,0.78v2.76c0.29,0.14,0.5,0.5,0.5,0.85
				c0,0.43-0.29,0.78-0.71,0.92l0.36,1.06c0.14,0.5-0.21,0.92-0.71,0.92c-0.5,0-0.86-0.5-0.71-0.92l0.36-1.06
				c-0.43-0.14-0.71-0.5-0.71-0.92c0-0.28,0.14-0.57,0.29-0.71v-2.55l-5.92,1.7c-0.5,0.14-1,0.14-1.5,0l-10.2-2.83L27.13,9.99z
				 M23.71,15.66l3.14,0.85c1.14,0.28,2.35,0.28,3.49,0l3.14-0.85v4.18c0,0.92-0.86,1.63-1.78,1.35l-0.71-0.28
				c-0.5-0.21-1-0.35-1.5-0.43c-0.57-0.07-1.21-0.07-1.78,0c-0.5,0.07-1,0.21-1.5,0.43l-0.71,0.28c-0.93,0.21-1.78-0.43-1.78-1.35
				V15.66z"/>
			<path class="st3" d="M16.29,35.72c-0.36,2.55-0.29,7.23-0.29,9.71l4.21,0.78c5.35,0.99,10.91,0.99,16.26,0l4.07-0.71
				c0-1.91,0.29-6.16,0-9.71c-0.29-3.47-3.49-3.9-4.35-3.68c-1.43,0.35-2.42,1.49-3.71,2.41c-1.43,0.99-3,1.35-4.07,1.35
				c-1.14,0-3.07-0.5-4.56-1.84c-0.86-0.78-1.71-1.28-2.64-1.63C18.72,31.25,16.72,33.24,16.29,35.72z"/>
			<path class="st3" d="M33.77,27.57c0,2.98-2.42,5.39-5.42,5.39s-5.42-2.41-5.42-5.39c0-2.98,2.43-5.38,5.42-5.38
				S33.77,24.59,33.77,27.57z"/>
		</g>
	</g>
</g>
</svg>
